<?xml version="1.0" encoding="UTF-8"?>
<svg xmlns="http://www.w3.org/2000/svg" width="20" height="20" viewBox="0 0 20 20" fill="none">
  <path d="M18.2539 1.75705C18.7757 2.28597 19.1121 2.9145 19.2631 3.64262C19.421 4.37075 19.5 5.20535 19.5 6.14642V13.8433C19.5 14.7843 19.421 15.6224 19.2631 16.3574C19.1121 17.0855 18.7757 17.7106 18.2539 18.2326C17.7184 18.7684 17.0834 19.1119 16.3488 19.263C15.6142 19.421 14.78 19.5 13.8463 19.5H6.15366C5.2131 19.5 4.37552 19.421 3.64092 19.263C2.91319 19.1119 2.285 18.7684 1.75637 18.2326C1.22087 17.7106 0.877597 17.0855 0.726558 16.3574C0.575519 15.6224 0.5 14.7843 0.5 13.8433V6.12581C0.5 5.19848 0.575519 4.37075 0.726558 3.64262C0.884463 2.9145 1.22773 2.28597 1.75637 1.75705C2.285 1.22813 2.91319 0.888106 3.64092 0.736985C4.37552 0.578995 5.20623 0.5 6.13306 0.5H13.8463C14.78 0.5 15.6142 0.578995 16.3488 0.736985C17.0834 0.888106 17.7184 1.22813 18.2539 1.75705ZM10.0257 4.49783C9.75113 4.49783 9.52114 4.58713 9.33577 4.76573C9.15041 4.93745 9.05772 5.1607 9.05772 5.43547V10.4637L9.1607 12.6687L8.20298 11.4734L7.0084 10.2267C6.83677 10.0412 6.62051 9.94848 6.35962 9.94848C6.1056 9.94848 5.89277 10.0309 5.72114 10.1958C5.55637 10.3606 5.47398 10.5667 5.47398 10.814C5.47398 11.075 5.5598 11.2914 5.73144 11.4631L9.26369 15.0488C9.49024 15.2892 9.74426 15.4094 10.0257 15.4094C10.3004 15.4094 10.5544 15.2892 10.7878 15.0488L14.3201 11.4631C14.4917 11.2845 14.5775 11.0681 14.5775 10.814C14.5775 10.5667 14.4917 10.3606 14.3201 10.1958C14.1484 10.0309 13.9356 9.94848 13.6816 9.94848C13.4138 9.94848 13.1976 10.0412 13.0328 10.2267L11.8485 11.4631L10.8805 12.679L10.9732 10.4637V5.43547C10.9732 5.1607 10.8839 4.93745 10.7054 4.76573C10.5269 4.58713 10.3004 4.49783 10.0257 4.49783Z" fill="white"></path>
</svg>
